<svg xmlns="http://www.w3.org/2000/svg" xmlns:xlink="http://www.w3.org/1999/xlink" viewBox="0 0 99.53 107.54"><defs><linearGradient id="linear-gradient" x1="-1007.03" y1="627.88" x2="-1004.54" y2="627.65" gradientTransform="matrix(3.46 .24 1.4 -19.97 2692.14 12824.2)" gradientUnits="userSpaceOnUse"><stop offset="0" stop-color="#335598"/><stop offset="1" stop-color="#0f1c3c"/></linearGradient><linearGradient id="linear-gradient-2" x1="-1837.48" y1="727.91" x2="-1834.99" y2="727.68" gradientTransform="matrix(-3.46 -.24 -1.4 19.97 -5304.61 -14938.21)" xlink:href="#linear-gradient"/><linearGradient id="linear-gradient-3" x1="-1362.3" y1="711.42" x2="-1362.01" y2="711.17" gradientTransform="matrix(26.79 -1.4 -1.39 -26.55 37502.02 17048.54)" xlink:href="#linear-gradient"/><linearGradient id="linear-gradient-4" x1="-1344.23" y1="694.76" x2="-1343.26" y2="694.76" gradientTransform="matrix(19.45 -1.02 -1.01 -19.27 26860.08 12077.14)" gradientUnits="userSpaceOnUse"><stop offset="0" stop-color="#21c8f6"/><stop offset="1" stop-color="#637bff"/></linearGradient><clipPath id="clip-path"><circle class="cls-1" cx="49.69" cy="54.54" r="48.62"/></clipPath><pattern id="SVGID_4_" data-name="SVGID 4" width="72" height="72" patternTransform="matrix(.99 -.16 -.16 -.99 19.19 -14637.99)" patternUnits="userSpaceOnUse"><path class="cls-1" d="M0 0h72v72H0z"/><path class="cls-1" d="M0 0h72v72H0z"/><path d="M36 0h36v36H36zM0 36h36v36H0z"/></pattern><style>.cls-1{fill:none}.cls-5{fill:#e7c1a6}.cls-12,.cls-16,.cls-19,.cls-5,.cls-6{fill-rule:evenodd}.cls-6{fill:#fffffd}.cls-19{fill:#87583d}.cls-12{fill:#333}.cls-16{fill:#471e00}.cls-23{fill:#aeadc8}</style></defs><g id="Layer_2" data-name="Layer 2"><g id="Layer_1-2" data-name="Layer 1"><g clip-path="url(#clip-path)"><circle cx="49.76" cy="54.29" r="49.76" fill="#488bff"/><g id="Group-26"><g id="Group-23-Copy"><ellipse id="Oval-4" cx="58.36" cy="81.11" rx="13.2" ry="27.6" transform="rotate(-87 58.364 81.11)" fill="#082e64"/><g id="Group-24"><path id="Fill-22" class="cls-5" d="M58.29 83c5 .27 9.65-4.5 11.71-11.4a19.54 19.54 0 00-10.7-4.1 19.32 19.32 0 00-11.38 3.1c1.34 7 5.38 12.1 10.37 12.36"/><path class="cls-5" d="M58.29 83c5 .27 9.65-4.5 11.71-11.4a19.54 19.54 0 00-10.7-4.1 19.32 19.32 0 00-11.38 3.1c1.34 7 5.38 12.1 10.37 12.36" id="Oval-5"/></g><g id="Group-48"><g id="Page-1"><g id="Group-64"><path id="Fill-16" class="cls-6" d="M51 70.57l-1 3.06s.14 20.13 1.35 16.19c1.79-5.51 8.1-7.39 8.1-7.39z"/><path id="Fill-19" class="cls-6" d="M69.16 71.53l.44 3S67 94.85 66.65 90.82c-.55-6.74-7.17-8.39-7.17-8.39z"/></g></g></g></g><path id="Path-Copy" d="M80.89 74.59a21.48 21.48 0 01-9.15 6.53c-7.74 2.5-13.46 4.5-13.46 4.5-.2 0-5.67-2.6-13.11-5.89a20.13 20.13 0 01-8.42-7.45C25.39 75.09 17.2 82.37 16.84 89.16l-.74 14.08 40.95 2.15 41.14 2.15.74-14.08c.35-6.79-7.03-14.89-18.04-18.87z" fill-rule="evenodd" fill="#082e64"/><path id="Path-6" d="M29 47.91c-1.37 1.23-.33 10.13 5.62 15s-4 16.22 5.35 16.41 2.78 23.27 5.51 24.72" stroke="#8a89a2" stroke-linecap="round" stroke-width="2" fill="none"/></g></g><g id="Group-29"><path d="M32.67 31.18c-.1 1.5 1.09 3 1.29 4.51s-.73 3.25-.43 4.68 1.95 2.24 2.56 3.58.27 3.33 1.08 4.59 2.31 1.36 3.25 2.23c.18.32.46.64.64.95.53 1 .83 2.46 1.68 3.22a2.74 2.74 0 001 .47c2.31 10 8.23 19.93 16.91 20.53 9.17.64 16.69-9.36 20.09-19.34.12-.2.22-.29.34-.48a8.55 8.55 0 003.83-3.24 2.79 2.79 0 001.47-.9c1-1 .92-3.14 1.71-4.39s2.43-1.84 3-3.2-.07-3.31.23-4.69 1.79-2.69 1.9-4.28-1.09-3-1.29-4.5.73-3.26.43-4.68-2-2.25-2.56-3.59-.26-3.33-1.08-4.59-2.51-1.38-3.44-2.44-1.08-3.09-2.13-4-2.77-.5-3.82-1.17-1.72-2.63-2.89-3.21-2.82.3-4-.08S70.28 5 69 4.85s-2.68 1-4 .93-2.6-1.49-3.81-1.47-2.52 1.63-3.73 1.84-2.76-.79-4-.47-2.16 2.25-3.3 2.77-2.91 0-4 .63-1.6 2.79-2.66 3.62-2.87.8-3.75 1.94-.92 3.15-1.71 4.4-2.43 1.83-3 3.19.07 3.31-.23 4.7c-.64 1.45-2.03 2.66-2.14 4.25zM78.09 54a30.47 30.47 0 01-1.48 3.9c-3.36 8-9.45 14.78-15.94 14.33-6.28-.44-11.11-7.4-13.46-15.38A44.26 44.26 0 0146 51.66l-.12-1.11-1-.27c-1.19-.28-2.66-2.09-3.07-4.82-.4-2.94.61-5.88 2.14-6.27h.6l1.48.31.32-1.69a30.81 30.81 0 012.89-8.41 2.37 2.37 0 011.21 0c1.27.39 2.2 3 3.68 3.26s3-1.79 4.52-1.58 2.63 2.58 4 2.68 3-2.1 4.36-2.1 3 2.21 4.26 2.2c1.51-.09 2.78-2.51 4.1-2.72 1-.13 2 .54 2.93 1a36.77 36.77 0 011.45 8l.08 1.71 1.51-.09h.6c1.46.6 2 3.55 1.25 6.5-.8 2.75-2.51 4.34-3.72 4.35l-1 .13z" fill="#87583d"/><path id="Path-5" d="M51 7.7Q70.1-3.9 82.08 9.88c8 9.18 8.39 11.91 1.42 8.32-6-5.84-11.4-9-16.19-9.35a35.05 35.05 0 00-14.48 2.09z" fill="#67412c" fill-rule="evenodd"/><path class="cls-5" d="M58.48 83.75c5.09.36 9.83-4.32 12.11-11.18a20.5 20.5 0 00-10.83-4.26 19.83 19.83 0 00-11.63 2.89c1.32 7 5.26 12.2 10.35 12.55"/><path class="cls-5" d="M58.48 83.75c5.09.36 9.83-4.32 12.11-11.18a20.5 20.5 0 00-10.83-4.26 19.83 19.83 0 00-11.63 2.89c1.32 7 5.26 12.2 10.35 12.55"/><g id="Group-27"><path id="Fill-25" class="cls-5" d="M91.23 39.43c-2-.74-4.72 1.58-6.28 5.28s-1.22 7.33.74 8.07S90.41 51.2 92 47.5s1.21-7.23-.74-8.07"/></g><g id="Group-30"><path id="Fill-28" class="cls-5" d="M32 35.29c2-.46 4.46 2.22 5.49 6.1s.18 7.43-1.85 7.89-4.46-2.22-5.49-6.1S30 35.85 32 35.29"/></g><path id="Fill-31" class="cls-5" d="M66.17 74.39c8.87-.68 15.77-9 17-15.35 1.13-6.14 3-16.73 3-16.73 1.68-24-13.92-24.63-13.92-24.63C59.56 12.58 54 16.4 54 16.4S39.35 15 37.67 39c0 0-1.29 9.83-.38 16.81.86 6.4 5.48 14.84 14.71 17.49 0 .1 3.58 1.85 14.16 1.09"/><g id="Group-36"><path id="Fill-34" d="M60.72 56.15a3.77 3.77 0 004-3.42l-7.48-.52a3.62 3.62 0 003.43 3.94" fill="#de7361" fill-rule="evenodd"/></g><g id="Group-42"><path id="Fill-40" class="cls-12" d="M52.23 40.75a2.5 2.5 0 01-.35 5 2.38 2.38 0 01-2.12-2.66 2.44 2.44 0 012.47-2.33"/></g><path id="Fill-46" class="cls-12" d="M71 42.15a2.5 2.5 0 11-2.57 2.32A2.45 2.45 0 0171 42.15"/><path class="cls-5" d="M66.07 74.42c8.87-.69 15.76-9 17-15.25s3-16.74 3-16.74c1.68-24-13.92-24.63-13.92-24.63-12.67-5.09-18.25-1.27-18.25-1.27S39.25 15 37.56 39.14c0 0-1.29 9.84-.38 16.82.82 6.37 5.48 14.82 14.72 17.47 0 0 3.69 1.76 14.17 1"/><path id="Fill-83" d="M61.32 21.86S48 14.21 40.41 28.51c-2.19 4.06-3.13 17.43-3.13 17.43a25.33 25.33 0 00-2.05-2.15s-1.81 2.88-.38-3.23c.14-.59-1 1.93-1.09 1.32-.39-3 1-4.34 1.05-5 0-4.51 0-9.52.11-11.62a7.12 7.12 0 013.93-5.94s-5.57.82-5.11-1.56a13.69 13.69 0 0111-5s-5.81-.11-5.17-2.07C47.43 7 52.9 9 52.9 9s-1.16-2 .21-3c26.09 3.93 33 14.63 33 14.63s5.14-.34 4 9.2a188.54 188.54 0 01-3.68 19.59l-2.29-.16s6.41-28.62-21.46-27.16z" opacity=".13" fill="#67412c" fill-rule="evenodd" style="isolation:isolate"/><path class="cls-6" d="M50.61 71.06l-1 3s-.2 20.13 1.18 16.22c1.88-5.48 8.42-7.23 8.42-7.23zm19.16 1.46l.39 3s-3 20.24-3.23 16.11c-.43-6.75-7.12-8.52-7.12-8.52z"/><path class="cls-5" d="M91.23 39.43c-2-.74-4.72 1.58-6.28 5.28s-1.22 7.33.74 8.07S90.41 51.2 92 47.5s1.21-7.23-.74-8.07M58.48 83.75c5.09.36 9.83-4.32 12.11-11.18a20.5 20.5 0 00-10.83-4.26 19.83 19.83 0 00-11.63 2.89c1.32 7 5.26 12.2 10.35 12.55M32 35.29c2-.46 4.46 2.22 5.49 6.1s.18 7.43-1.85 7.89-4.46-2.22-5.49-6.1S30 35.85 32 35.29"/><path d="M52.23 40.75a2.5 2.5 0 01-.35 5 2.38 2.38 0 01-2.12-2.66 2.44 2.44 0 012.47-2.33M71 42.06a2.5 2.5 0 11-2.57 2.33A2.52 2.52 0 0171 42.06" fill="#023570" fill-rule="evenodd"/><path id="Fill-37" d="M46.49 55.61c4-2.63 10.38.63 14.07.88l-.13 1.9c-6.68-.47-13.43-2.84-13.94.13-.48 2.57 1.64 8 8 9.88 1.87.53 3.19-1.18 5.08-1.05h.2l-.59 8.48h-1c-8.87-.62-21.35-10-22.61-22.13-1.07-10.5-.16-13.45.35-17.82.39-3.88 2.88-7.88 2.14-1.61-.94 7.73.94 24.32 8.43 21.34zm14.17.89c6.89.48 9.58-2.24 13.59.65 8.59 6.21 11.28-16.55 11.29-19.46.14-6.31 3.24-2 2.28 1.76-1.25 4.93-.34 7.7-3.26 17.92-3.15 10.71-15.87 19.14-24.75 18.52h-.6l.59-8.48c1.69.22 2.77 2 4.69 1.73 6.28-.87 9.63-5.74 9.8-8.24.25-3.49-6.68-2-13.76-2.46h-.1l.23-1.89z" fill="#91715a" opacity=".07" fill-rule="evenodd" style="isolation:isolate"/><path id="Fill-52" class="cls-16" d="M47.28 36.5c-.87.94.59 1.55 1.47.51 1.52-1.7 4.61-1.49 6.42-.16a1 1 0 101.12-1.62 7 7 0 00-9 1.27"/><path id="Fill-55" class="cls-16" d="M77.67 38.63c.72 1.15-.91 1.54-1.64.38-1.16-2-4.26-2.1-6.33-1.14a1 1 0 11-.88-1.77 7.15 7.15 0 018.85 2.53"/><g id="Group-14" fill-rule="evenodd"><path id="Fill-58" d="M68.28 62.08c-4.77 6.58-12.05 6.08-15.86-1.08z" fill="#aa694f"/><path id="Fill-61" d="M64.88 65.4a7.65 7.65 0 01-9.48-.66c3.05-3.49 6.84-3.23 9.48.66" fill="#eda17d"/></g><path id="Path-3" class="cls-19" d="M52.37 14.62c-3.48 6.87-4.7 11.4-3.76 13.67.14.81 3.13-4.59 4.39-5.41s-.7 4.26.15 3.52c1.48-1.1 3.31-5.68 5-3.26 1.82 2.64 8.31-2.62 10.22-5.6 2-3.16.71-1.55.24-3.49-.49-2.44-5.92-2.22-16.24.57z"/><path id="Path-3-Copy" class="cls-19" d="M75.11 20.62c1.78 6.14 1.8 8.65-.13 7.61-2.4-1.57-.42-8.35-5.38-6.19-5 1.65 4.74-10.5-.45-12.26-3.61-1.36-1.65 2.22 5.96 10.84z"/><path id="Path-4" d="M58 52.3a3.51 3.51 0 003.78 3.27c2.2.06 3.37-.87 3.5-2.76" stroke="#b99982" fill="none"/><g id="headphones-copy"><path d="M91.63 34.62c-.89-.06-1.76.88-1.85 2.08l-1.09 15.66a1.76 1.76 0 103.39.23L93.17 37a1.94 1.94 0 00-1.54-2.38z" fill="url(#linear-gradient)"/><path id="Shape-Copy-2" d="M31.88 50.49a2 2 0 001.85-2.08l1.09-15.56a2 2 0 00-1.54-2.31 2 2 0 00-2 2.07l-1.04 15.56a2 2 0 001.64 2.32z" fill="url(#linear-gradient-2)"/><path id="Shape-Copy" class="cls-23" d="M88 36.47a1.76 1.76 0 00-1.82 1.58l-.84 12a1.7 1.7 0 003.4.24l.83-12A1.62 1.62 0 0088 36.47z"/><path id="Shape-Copy-3" class="cls-23" d="M35.05 48.21a1.74 1.74 0 001.81-1.48l.84-12.07a1.68 1.68 0 00-1.58-1.72 1.77 1.77 0 00-1.91 1.47l-.84 12a1.78 1.78 0 001.68 1.8z"/><path d="M97.19 26.79a28.48 28.48 0 00-2-6.76 6 6 0 00.3-1.38 4.73 4.73 0 00-.49-2.34 19.46 19.46 0 00-5.39-6.09C87.53 8.67 81.13 1.31 64.47.14s-24 5.24-26.31 6.48A19.59 19.59 0 0032 11.9a4.23 4.23 0 00-.76 2.26 6.81 6.81 0 00.11 1.41 27.1 27.1 0 00-3 6.41 37.67 37.67 0 00-1.58 8.3l-.63 9a10.74 10.74 0 001.19 5.9 5.37 5.37 0 002.93 2.51l1.14-16.08a4.78 4.78 0 00-3.14 1.89l.21-3.1a31.65 31.65 0 011.42-7.4 27.35 27.35 0 012.6-5.63 1.61 1.61 0 00.7.15 2.06 2.06 0 001.55-.69 15.34 15.34 0 014.69-4.09c1.77-.87 10.42-8.49 24.69-7.49s21.76 9.84 23.4 10.86a13.91 13.91 0 014.09 4.59 2.15 2.15 0 001.52 1.11 1.57 1.57 0 00.71-.05 30.19 30.19 0 011.79 5.94 31 31 0 01.37 7.53l-.21 3.09A4.89 4.89 0 0092.94 36l-1.12 16.07A5.19 5.19 0 0095.07 50a10.46 10.46 0 002-5.68l.63-9a33.46 33.46 0 00-.51-8.53z" fill="#8d88ff" opacity=".24" style="isolation:isolate"/><path id="Shape-Copy-4" class="cls-23" d="M96.62 27.75a28.48 28.48 0 00-2-6.76 6 6 0 00.3-1.38 4.73 4.73 0 00-.44-2.34 19.58 19.58 0 00-5.39-6.09C87 9.63 80.56 2.27 63.9 1.1s-24 5.24-26.31 6.48a19.5 19.5 0 00-6.19 5.29 4.11 4.11 0 00-.75 2.25 6.13 6.13 0 00.1 1.41 27.48 27.48 0 00-3 6.41 37.65 37.65 0 00-1.58 8.31l-.63 9a10.43 10.43 0 001.19 5.89 5.32 5.32 0 002.94 2.51l1.12-16.06a4.82 4.82 0 00-3.14 1.89l.22-3.09A30.48 30.48 0 0129.33 24a26.42 26.42 0 012.6-5.64 1.54 1.54 0 00.69.15 2 2 0 001.55-.69 15.18 15.18 0 014.7-4.08c1.76-.88 10.41-8.5 24.68-7.5S85.31 16 87 17.05a13.85 13.85 0 014 4.6 2.23 2.23 0 001.52 1.11 1.73 1.73 0 00.71-.06 30.4 30.4 0 011.79 5.94 31 31 0 01.37 7.55l-.21 3.09A4.8 4.8 0 0092.37 37l-1.12 16a5.25 5.25 0 003.25-2 10.46 10.46 0 002-5.67l.63-9a33.51 33.51 0 00-.51-8.58z"/></g><path id="Fill-83-Copy" class="cls-19" d="M60.65 19.61S47.35 12 39.73 26.26c-2.19 4.06-3.12 17.43-3.12 17.43a24.16 24.16 0 00-2.06-2.15s-1.8 2.88-.37-3.23c.14-.59-1 1.93-1.1 1.32-.39-3 1-4.34 1.06-5 0-4.51 0-9.52.11-11.62A7.07 7.07 0 0138.17 17s-5.58 1-5.17-1.43a13.77 13.77 0 0111-5s-5.81-.11-5.17-2.07C46.64 4.89 52.11 7 52.11 7s-1.11-2.1.21-3.11c26.11 3.73 33 14.43 33 14.43s5.13-.34 4 9.2c-.46 3.78-1.13 7.54-1.75 10.81l-.21 3c-.14.49-1.34-.9-.79 1.25s-.31 1.58-.46 2.17a8.2 8.2 0 00.07 3.31L83.8 49.7s5.91-31.37-22-29.91z"/><g id="Group-67"><path id="Fill-65" d="M67.71 62.06c-.66 3.66-14.84 2.27-14.81-1z" fill="#fff" fill-rule="evenodd"/></g></g><g id="microphone"><path d="M19.58 92.72l-.5-15.23h2.2l.8 17.11z" fill="#e5e8ed"/><path d="M16.64 69.08l-4.73 5.26L18.22 80A3.53 3.53 0 0023 74.76z" fill="#ced5e0"/><path d="M29 62.32l-7.24-6.42L3.8 78.17a3.18 3.18 0 004.73 4.25z" fill="url(#linear-gradient-3)"/><path id="Oval" d="M28 46.56a9.6 9.6 0 11-9.19 10.09A9.62 9.62 0 0128 46.56z" fill="url(#linear-gradient-4)"/><path d="M20.28 50.57a9.94 9.94 0 0117.9 5.27 9.76 9.76 0 01-6.9 9.87 9.71 9.71 0 00-8.42-15.58 10.62 10.62 0 00-2.58.44z" fill="#3450c5" opacity=".66" style="isolation:isolate"/><g id="Group"><path id="path-9" d="M22.12 71.27l-8.19 7.94a1.24 1.24 0 01-1.7 0l-5.57-5a1.23 1.23 0 01-.19-1.69l7-8.88a1.27 1.27 0 011.79-.2l6.72 6a1.22 1.22 0 01.14 1.83z" fill="#e6e9ee" fill-rule="evenodd"/><path d="M22.12 71.27l-8.19 7.94a1.24 1.24 0 01-1.7 0l-5.57-5a1.23 1.23 0 01-.19-1.69l7-8.88a1.27 1.27 0 011.79-.2l6.72 6a1.22 1.22 0 01.14 1.83z" fill-opacity=".01" fill="url(#SVGID_4_)" fill-rule="evenodd"/><ellipse cx="20.15" cy="77.32" rx="1.6" ry="1.8" transform="rotate(-3 20.14 77.339)" fill="#e6e9ee"/></g></g></g></g></svg>